# MagicaVoxel @ Ephtracy

# group
g Hearth

# material
mtllib Hearth.mtl
usemtl palette

# normals
vn -1 0 0
vn 1 0 0
vn 0 0 1
vn 0 0 -1
vn 0 -1 0
vn 0 1 0

# texcoords
vt 0.845703 0.5
vt 0.849609 0.5
vt 0.853516 0.5
vt 0.857422 0.5
vt 0.958984 0.5
vt 0.994141 0.5

# verts
v -9 0 -0
v -9 0 -4
v -9 2 -0
v -9 2 -4
v -8 0 1
v -8 0 -0
v -8 0 -4
v -8 0 -5
v -8 2 1
v -8 2 -0
v -8 2 -4
v -8 2 -5
v -7 0 2
v -7 0 1
v -7 0 -5
v -7 0 -6
v -7 2 2
v -7 2 1
v -7 2 -5
v -7 2 -6
v -6 0 3
v -6 0 2
v -6 0 -6
v -6 0 -7
v -6 2 3
v -6 2 2
v -6 2 -6
v -6 2 -7
v -5 0 4
v -5 0 3
v -5 2 4
v -5 2 3
v -4 0 5
v -4 0 4
v -4 2 5
v -4 2 4
v -3 0 6
v -3 0 5
v -3 2 6
v -3 2 5
v -2 0 7
v -2 0 6
v -2 2 7
v -2 2 6
v -1 0 8
v -1 0 7
v -1 2 8
v -1 2 7
v 1 0 -4
v 1 0 -5
v 1 2 -4
v 1 2 -5
v 2 0 -5
v 2 0 -6
v 2 2 -5
v 2 2 -6
v 3 0 -6
v 3 0 -7
v 3 2 -6
v 3 2 -7
v -3 0 -6
v -3 0 -7
v -3 2 -6
v -3 2 -7
v -2 0 -5
v -2 0 -6
v -2 2 -5
v -2 2 -6
v -1 0 -4
v -1 0 -5
v -1 2 -4
v -1 2 -5
v 1 0 8
v 1 0 7
v 1 2 8
v 1 2 7
v 2 0 7
v 2 0 6
v 2 2 7
v 2 2 6
v 3 0 6
v 3 0 5
v 3 2 6
v 3 2 5
v 4 0 5
v 4 0 4
v 4 2 5
v 4 2 4
v 5 0 4
v 5 0 3
v 5 2 4
v 5 2 3
v 6 0 3
v 6 0 2
v 6 0 -6
v 6 0 -7
v 6 2 3
v 6 2 2
v 6 2 -6
v 6 2 -7
v 7 0 2
v 7 0 1
v 7 0 -5
v 7 0 -6
v 7 2 2
v 7 2 1
v 7 2 -5
v 7 2 -6
v 8 0 1
v 8 0 -0
v 8 0 -4
v 8 0 -5
v 8 2 1
v 8 2 -0
v 8 2 -4
v 8 2 -5
v 9 0 -0
v 9 0 -4
v 9 2 -0
v 9 2 -4
v -1 0 8
v -1 2 8
v 1 0 8
v 1 2 8
v -2 0 7
v -2 2 7
v -1 0 7
v -1 2 7
v 1 0 7
v 1 2 7
v 2 0 7
v 2 2 7
v -3 0 6
v -3 2 6
v -2 0 6
v -2 2 6
v 2 0 6
v 2 2 6
v 3 0 6
v 3 2 6
v -4 0 5
v -4 2 5
v -3 0 5
v -3 2 5
v 3 0 5
v 3 2 5
v 4 0 5
v 4 2 5
v -5 0 4
v -5 2 4
v -4 0 4
v -4 2 4
v 4 0 4
v 4 2 4
v 5 0 4
v 5 2 4
v -6 0 3
v -6 2 3
v -5 0 3
v -5 2 3
v 5 0 3
v 5 2 3
v 6 0 3
v 6 2 3
v -7 0 2
v -7 2 2
v -6 0 2
v -6 2 2
v 6 0 2
v 6 2 2
v 7 0 2
v 7 2 2
v -8 0 1
v -8 2 1
v -7 0 1
v -7 2 1
v 7 0 1
v 7 2 1
v 8 0 1
v 8 2 1
v -9 0 -0
v -9 2 -0
v -8 0 -0
v -8 2 -0
v 8 0 -0
v 8 2 -0
v 9 0 -0
v 9 2 -0
v -9 0 -4
v -9 2 -4
v -8 0 -4
v -8 2 -4
v -1 0 -4
v -1 2 -4
v 1 0 -4
v 1 2 -4
v 8 0 -4
v 8 2 -4
v 9 0 -4
v 9 2 -4
v -8 0 -5
v -8 2 -5
v -7 0 -5
v -7 2 -5
v -2 0 -5
v -2 2 -5
v -1 0 -5
v -1 2 -5
v 1 0 -5
v 1 2 -5
v 2 0 -5
v 2 2 -5
v 7 0 -5
v 7 2 -5
v 8 0 -5
v 8 2 -5
v -7 0 -6
v -7 2 -6
v -6 0 -6
v -6 2 -6
v -3 0 -6
v -3 2 -6
v -2 0 -6
v -2 2 -6
v 2 0 -6
v 2 2 -6
v 3 0 -6
v 3 2 -6
v 6 0 -6
v 6 2 -6
v 7 0 -6
v 7 2 -6
v -6 0 -7
v -6 2 -7
v -3 0 -7
v -3 2 -7
v 3 0 -7
v 3 2 -7
v 6 0 -7
v 6 2 -7
v -1 0 8
v 1 0 8
v -2 0 7
v -1 0 7
v 0 0 7
v 1 0 7
v 2 0 7
v -3 0 6
v -2 0 6
v -1 0 6
v 0 0 6
v 1 0 6
v 2 0 6
v 3 0 6
v -4 0 5
v -3 0 5
v -2 0 5
v -1 0 5
v 0 0 5
v 1 0 5
v 2 0 5
v 3 0 5
v 4 0 5
v -5 0 4
v -4 0 4
v -3 0 4
v 0 0 4
v 1 0 4
v 2 0 4
v 3 0 4
v 4 0 4
v 5 0 4
v -6 0 3
v -5 0 3
v -4 0 3
v 1 0 3
v 2 0 3
v 3 0 3
v 4 0 3
v 5 0 3
v 6 0 3
v -7 0 2
v -6 0 2
v -5 0 2
v 2 0 2
v 3 0 2
v 4 0 2
v 5 0 2
v 6 0 2
v 7 0 2
v -8 0 1
v -7 0 1
v -6 0 1
v 3 0 1
v 4 0 1
v 5 0 1
v 6 0 1
v 7 0 1
v 8 0 1
v -9 0 -0
v -8 0 -0
v -7 0 -0
v 4 0 -0
v 5 0 -0
v 6 0 -0
v 7 0 -0
v 8 0 -0
v 9 0 -0
v -7 0 -2
v -6 0 -2
v -7 0 -3
v -6 0 -3
v -5 0 -3
v -1 0 -3
v 1 0 -3
v -9 0 -4
v -8 0 -4
v -7 0 -4
v -6 0 -4
v -5 0 -4
v -4 0 -4
v -2 0 -4
v -1 0 -4
v 1 0 -4
v 2 0 -4
v 7 0 -4
v 8 0 -4
v 9 0 -4
v -8 0 -5
v -7 0 -5
v -6 0 -5
v -5 0 -5
v -4 0 -5
v -3 0 -5
v -2 0 -5
v -1 0 -5
v 1 0 -5
v 2 0 -5
v 3 0 -5
v 5 0 -5
v 6 0 -5
v 7 0 -5
v 8 0 -5
v -7 0 -6
v -6 0 -6
v -3 0 -6
v -2 0 -6
v 2 0 -6
v 3 0 -6
v 5 0 -6
v 6 0 -6
v 7 0 -6
v -6 0 -7
v -3 0 -7
v 3 0 -7
v 6 0 -7
v -1 2 8
v 1 2 8
v -2 2 7
v -1 2 7
v 0 2 7
v 1 2 7
v 2 2 7
v -3 2 6
v -2 2 6
v -1 2 6
v 0 2 6
v 1 2 6
v 2 2 6
v 3 2 6
v -4 2 5
v -3 2 5
v -2 2 5
v -1 2 5
v 0 2 5
v 1 2 5
v 2 2 5
v 3 2 5
v 4 2 5
v -5 2 4
v -4 2 4
v -3 2 4
v 0 2 4
v 1 2 4
v 2 2 4
v 3 2 4
v 4 2 4
v 5 2 4
v -6 2 3
v -5 2 3
v -4 2 3
v 1 2 3
v 2 2 3
v 3 2 3
v 4 2 3
v 5 2 3
v 6 2 3
v -7 2 2
v -6 2 2
v -5 2 2
v 2 2 2
v 3 2 2
v 4 2 2
v 5 2 2
v 6 2 2
v 7 2 2
v -8 2 1
v -7 2 1
v -6 2 1
v 3 2 1
v 4 2 1
v 5 2 1
v 6 2 1
v 7 2 1
v 8 2 1
v -9 2 -0
v -8 2 -0
v -7 2 -0
v 4 2 -0
v 5 2 -0
v 6 2 -0
v 7 2 -0
v 8 2 -0
v 9 2 -0
v -7 2 -2
v -6 2 -2
v -7 2 -3
v -6 2 -3
v -5 2 -3
v -1 2 -3
v 1 2 -3
v -9 2 -4
v -8 2 -4
v -7 2 -4
v -6 2 -4
v -5 2 -4
v -4 2 -4
v -2 2 -4
v -1 2 -4
v 1 2 -4
v 2 2 -4
v 7 2 -4
v 8 2 -4
v 9 2 -4
v -8 2 -5
v -7 2 -5
v -6 2 -5
v -5 2 -5
v -4 2 -5
v -3 2 -5
v -2 2 -5
v -1 2 -5
v 1 2 -5
v 2 2 -5
v 3 2 -5
v 5 2 -5
v 6 2 -5
v 7 2 -5
v 8 2 -5
v -7 2 -6
v -6 2 -6
v -3 2 -6
v -2 2 -6
v 2 2 -6
v 3 2 -6
v 5 2 -6
v 6 2 -6
v 7 2 -6
v -6 2 -7
v -3 2 -7
v 3 2 -7
v 6 2 -7

# faces
f 3/6/1 2/6/1 1/6/1
f 4/6/1 2/6/1 3/6/1
f 9/6/1 6/6/1 5/6/1
f 10/6/1 6/6/1 9/6/1
f 11/6/1 8/6/1 7/6/1
f 12/6/1 8/6/1 11/6/1
f 17/6/1 14/6/1 13/6/1
f 18/6/1 14/6/1 17/6/1
f 19/6/1 16/6/1 15/6/1
f 20/6/1 16/6/1 19/6/1
f 25/6/1 22/6/1 21/6/1
f 26/6/1 22/6/1 25/6/1
f 27/6/1 24/6/1 23/6/1
f 28/6/1 24/6/1 27/6/1
f 31/6/1 30/6/1 29/6/1
f 32/6/1 30/6/1 31/6/1
f 35/6/1 34/6/1 33/6/1
f 36/6/1 34/6/1 35/6/1
f 39/6/1 38/6/1 37/6/1
f 40/6/1 38/6/1 39/6/1
f 43/6/1 42/6/1 41/6/1
f 44/6/1 42/6/1 43/6/1
f 47/6/1 46/6/1 45/6/1
f 48/6/1 46/6/1 47/6/1
f 51/6/1 50/6/1 49/6/1
f 52/6/1 50/6/1 51/6/1
f 55/6/1 54/6/1 53/6/1
f 56/6/1 54/6/1 55/6/1
f 59/6/1 58/6/1 57/6/1
f 60/6/1 58/6/1 59/6/1
f 61/6/2 62/6/2 63/6/2
f 63/6/2 62/6/2 64/6/2
f 65/6/2 66/6/2 67/6/2
f 67/6/2 66/6/2 68/6/2
f 69/6/2 70/6/2 71/6/2
f 71/6/2 70/6/2 72/6/2
f 73/6/2 74/6/2 75/6/2
f 75/6/2 74/6/2 76/6/2
f 77/6/2 78/6/2 79/6/2
f 79/6/2 78/6/2 80/6/2
f 81/6/2 82/6/2 83/6/2
f 83/6/2 82/6/2 84/6/2
f 85/6/2 86/6/2 87/6/2
f 87/6/2 86/6/2 88/6/2
f 89/6/2 90/6/2 91/6/2
f 91/6/2 90/6/2 92/6/2
f 93/6/2 94/6/2 97/6/2
f 97/6/2 94/6/2 98/6/2
f 95/6/2 96/6/2 99/6/2
f 99/6/2 96/6/2 100/6/2
f 101/6/2 102/6/2 105/6/2
f 105/6/2 102/6/2 106/6/2
f 103/6/2 104/6/2 107/6/2
f 107/6/2 104/6/2 108/6/2
f 109/6/2 110/6/2 113/6/2
f 113/6/2 110/6/2 114/6/2
f 111/6/2 112/6/2 115/6/2
f 115/6/2 112/6/2 116/6/2
f 117/6/2 118/6/2 119/6/2
f 119/6/2 118/6/2 120/6/2
f 123/6/3 122/6/3 121/6/3
f 124/6/3 122/6/3 123/6/3
f 127/6/3 126/6/3 125/6/3
f 128/6/3 126/6/3 127/6/3
f 131/6/3 130/6/3 129/6/3
f 132/6/3 130/6/3 131/6/3
f 135/6/3 134/6/3 133/6/3
f 136/6/3 134/6/3 135/6/3
f 139/6/3 138/6/3 137/6/3
f 140/6/3 138/6/3 139/6/3
f 143/6/3 142/6/3 141/6/3
f 144/6/3 142/6/3 143/6/3
f 147/6/3 146/6/3 145/6/3
f 148/6/3 146/6/3 147/6/3
f 151/6/3 150/6/3 149/6/3
f 152/6/3 150/6/3 151/6/3
f 155/6/3 154/6/3 153/6/3
f 156/6/3 154/6/3 155/6/3
f 159/6/3 158/6/3 157/6/3
f 160/6/3 158/6/3 159/6/3
f 163/6/3 162/6/3 161/6/3
f 164/6/3 162/6/3 163/6/3
f 167/6/3 166/6/3 165/6/3
f 168/6/3 166/6/3 167/6/3
f 171/6/3 170/6/3 169/6/3
f 172/6/3 170/6/3 171/6/3
f 175/6/3 174/6/3 173/6/3
f 176/6/3 174/6/3 175/6/3
f 179/6/3 178/6/3 177/6/3
f 180/6/3 178/6/3 179/6/3
f 183/6/3 182/6/3 181/6/3
f 184/6/3 182/6/3 183/6/3
f 187/6/3 186/6/3 185/6/3
f 188/6/3 186/6/3 187/6/3
f 189/6/4 190/6/4 191/6/4
f 191/6/4 190/6/4 192/6/4
f 193/6/4 194/6/4 195/6/4
f 195/6/4 194/6/4 196/6/4
f 197/6/4 198/6/4 199/6/4
f 199/6/4 198/6/4 200/6/4
f 201/6/4 202/6/4 203/6/4
f 203/6/4 202/6/4 204/6/4
f 205/6/4 206/6/4 207/6/4
f 207/6/4 206/6/4 208/6/4
f 209/6/4 210/6/4 211/6/4
f 211/6/4 210/6/4 212/6/4
f 213/6/4 214/6/4 215/6/4
f 215/6/4 214/6/4 216/6/4
f 217/6/4 218/6/4 219/6/4
f 219/6/4 218/6/4 220/6/4
f 221/6/4 222/6/4 223/6/4
f 223/6/4 222/6/4 224/6/4
f 225/6/4 226/6/4 227/6/4
f 227/6/4 226/6/4 228/6/4
f 229/6/4 230/6/4 231/6/4
f 231/6/4 230/6/4 232/6/4
f 233/6/4 234/6/4 235/6/4
f 235/6/4 234/6/4 236/6/4
f 237/6/4 238/6/4 239/6/4
f 239/6/4 238/6/4 240/6/4
f 244/6/5 242/6/5 241/6/5
f 245/6/5 242/6/5 244/6/5
f 246/6/5 242/6/5 245/6/5
f 249/6/5 244/6/5 243/6/5
f 250/3/5 245/3/5 244/3/5
f 250/6/5 244/6/5 249/6/5
f 251/4/5 246/4/5 245/4/5
f 251/3/5 245/3/5 250/3/5
f 252/6/5 247/6/5 246/6/5
f 252/4/5 246/4/5 251/4/5
f 253/6/5 247/6/5 252/6/5
f 256/6/5 249/6/5 248/6/5
f 257/1/5 250/1/5 249/1/5
f 257/6/5 249/6/5 256/6/5
f 258/2/5 251/2/5 250/2/5
f 258/1/5 250/1/5 257/1/5
f 259/3/5 252/3/5 251/3/5
f 259/2/5 251/2/5 258/2/5
f 260/4/5 253/4/5 252/4/5
f 260/3/5 252/3/5 259/3/5
f 261/6/5 254/6/5 253/6/5
f 261/4/5 253/4/5 260/4/5
f 262/6/5 254/6/5 261/6/5
f 265/6/5 256/6/5 255/6/5
f 266/1/5 257/1/5 256/1/5
f 266/1/5 258/1/5 257/1/5
f 266/6/5 256/6/5 265/6/5
f 266/1/5 259/1/5 258/1/5
f 267/2/5 260/2/5 259/2/5
f 267/1/5 259/1/5 266/1/5
f 268/3/5 261/3/5 260/3/5
f 268/2/5 260/2/5 267/2/5
f 269/4/5 262/4/5 261/4/5
f 269/3/5 261/3/5 268/3/5
f 270/6/5 263/6/5 262/6/5
f 270/4/5 262/4/5 269/4/5
f 271/6/5 263/6/5 270/6/5
f 274/6/5 265/6/5 264/6/5
f 275/1/5 266/1/5 265/1/5
f 275/1/5 268/1/5 267/1/5
f 275/6/5 265/6/5 274/6/5
f 275/1/5 267/1/5 266/1/5
f 276/2/5 269/2/5 268/2/5
f 276/1/5 268/1/5 275/1/5
f 277/3/5 270/3/5 269/3/5
f 277/2/5 269/2/5 276/2/5
f 278/4/5 271/4/5 270/4/5
f 278/3/5 270/3/5 277/3/5
f 279/6/5 272/6/5 271/6/5
f 279/4/5 271/4/5 278/4/5
f 280/6/5 272/6/5 279/6/5
f 283/6/5 274/6/5 273/6/5
f 284/1/5 275/1/5 274/1/5
f 284/1/5 277/1/5 276/1/5
f 284/6/5 274/6/5 283/6/5
f 284/1/5 276/1/5 275/1/5
f 285/2/5 278/2/5 277/2/5
f 285/1/5 277/1/5 284/1/5
f 286/3/5 279/3/5 278/3/5
f 286/2/5 278/2/5 285/2/5
f 287/4/5 280/4/5 279/4/5
f 287/3/5 279/3/5 286/3/5
f 288/6/5 281/6/5 280/6/5
f 288/4/5 280/4/5 287/4/5
f 289/6/5 281/6/5 288/6/5
f 292/6/5 283/6/5 282/6/5
f 293/1/5 284/1/5 283/1/5
f 293/1/5 286/1/5 285/1/5
f 293/6/5 283/6/5 292/6/5
f 293/1/5 285/1/5 284/1/5
f 294/2/5 287/2/5 286/2/5
f 294/1/5 286/1/5 293/1/5
f 295/3/5 288/3/5 287/3/5
f 295/2/5 287/2/5 294/2/5
f 296/4/5 289/4/5 288/4/5
f 296/3/5 288/3/5 295/3/5
f 297/6/5 290/6/5 289/6/5
f 297/4/5 289/4/5 296/4/5
f 298/6/5 290/6/5 297/6/5
f 301/6/5 292/6/5 291/6/5
f 302/1/5 293/1/5 292/1/5
f 302/1/5 295/1/5 294/1/5
f 302/6/5 292/6/5 301/6/5
f 302/1/5 294/1/5 293/1/5
f 303/2/5 296/2/5 295/2/5
f 303/1/5 295/1/5 302/1/5
f 304/3/5 297/3/5 296/3/5
f 304/2/5 296/2/5 303/2/5
f 305/4/5 298/4/5 297/4/5
f 305/3/5 297/3/5 304/3/5
f 306/6/5 299/6/5 298/6/5
f 306/4/5 298/4/5 305/4/5
f 307/6/5 299/6/5 306/6/5
f 309/1/5 305/1/5 304/1/5
f 309/1/5 302/1/5 301/1/5
f 309/1/5 304/1/5 303/1/5
f 309/1/5 303/1/5 302/1/5
f 310/1/5 305/1/5 309/1/5
f 311/1/5 309/1/5 301/1/5
f 311/5/5 310/5/5 309/5/5
f 312/1/5 305/1/5 310/1/5
f 312/5/5 310/5/5 311/5/5
f 313/1/5 305/1/5 312/1/5
f 314/1/5 305/1/5 313/1/5
f 315/1/5 305/1/5 314/1/5
f 316/6/5 301/6/5 300/6/5
f 317/1/5 311/1/5 301/1/5
f 317/6/5 301/6/5 316/6/5
f 317/1/5 312/1/5 311/1/5
f 318/1/5 312/1/5 317/1/5
f 319/5/5 313/5/5 312/5/5
f 319/1/5 312/1/5 318/1/5
f 320/1/5 314/1/5 313/1/5
f 320/5/5 313/5/5 319/5/5
f 321/1/5 314/1/5 320/1/5
f 322/1/5 314/1/5 321/1/5
f 323/6/5 315/6/5 314/6/5
f 323/1/5 314/1/5 322/1/5
f 324/1/5 305/1/5 315/1/5
f 324/6/5 315/6/5 323/6/5
f 325/1/5 305/1/5 324/1/5
f 326/4/5 307/4/5 306/4/5
f 326/3/5 306/3/5 305/3/5
f 327/6/5 308/6/5 307/6/5
f 327/4/5 307/4/5 326/4/5
f 328/6/5 308/6/5 327/6/5
f 329/6/5 318/6/5 317/6/5
f 330/1/5 319/1/5 318/1/5
f 330/6/5 318/6/5 329/6/5
f 330/1/5 320/1/5 319/1/5
f 331/1/5 320/1/5 330/1/5
f 332/5/5 321/5/5 320/5/5
f 332/1/5 320/1/5 331/1/5
f 333/1/5 322/1/5 321/1/5
f 333/5/5 321/5/5 332/5/5
f 334/1/5 322/1/5 333/1/5
f 335/6/5 323/6/5 322/6/5
f 335/1/5 322/1/5 334/1/5
f 336/6/5 323/6/5 335/6/5
f 337/6/5 325/6/5 324/6/5
f 338/1/5 305/1/5 325/1/5
f 338/6/5 325/6/5 337/6/5
f 339/1/5 305/1/5 338/1/5
f 340/1/5 305/1/5 339/1/5
f 341/3/5 326/3/5 305/3/5
f 341/1/5 305/1/5 340/1/5
f 342/6/5 327/6/5 326/6/5
f 342/3/5 326/3/5 341/3/5
f 343/6/5 327/6/5 342/6/5
f 344/6/5 331/6/5 330/6/5
f 345/1/5 334/1/5 333/1/5
f 345/6/5 331/6/5 344/6/5
f 345/1/5 332/1/5 331/1/5
f 345/1/5 333/1/5 332/1/5
f 346/6/5 335/6/5 334/6/5
f 346/1/5 334/1/5 345/1/5
f 347/6/5 335/6/5 346/6/5
f 348/6/5 339/6/5 338/6/5
f 349/1/5 340/1/5 339/1/5
f 349/6/5 339/6/5 348/6/5
f 350/3/5 341/3/5 340/3/5
f 350/1/5 340/1/5 349/1/5
f 351/6/5 342/6/5 341/6/5
f 351/3/5 341/3/5 350/3/5
f 352/6/5 342/6/5 351/6/5
f 353/6/5 346/6/5 345/6/5
f 354/6/5 346/6/5 353/6/5
f 355/6/5 351/6/5 350/6/5
f 355/6/5 350/6/5 349/6/5
f 356/6/5 351/6/5 355/6/5
f 357/6/6 358/6/6 360/6/6
f 360/6/6 358/6/6 361/6/6
f 361/6/6 358/6/6 362/6/6
f 359/6/6 360/6/6 365/6/6
f 360/3/6 361/3/6 366/3/6
f 365/6/6 360/6/6 366/6/6
f 361/4/6 362/4/6 367/4/6
f 366/3/6 361/3/6 367/3/6
f 362/6/6 363/6/6 368/6/6
f 367/4/6 362/4/6 368/4/6
f 368/6/6 363/6/6 369/6/6
f 364/6/6 365/6/6 372/6/6
f 365/1/6 366/1/6 373/1/6
f 372/6/6 365/6/6 373/6/6
f 366/2/6 367/2/6 374/2/6
f 373/1/6 366/1/6 374/1/6
f 367/3/6 368/3/6 375/3/6
f 374/2/6 367/2/6 375/2/6
f 368/4/6 369/4/6 376/4/6
f 375/3/6 368/3/6 376/3/6
f 369/6/6 370/6/6 377/6/6
f 376/4/6 369/4/6 377/4/6
f 377/6/6 370/6/6 378/6/6
f 371/6/6 372/6/6 381/6/6
f 372/1/6 373/1/6 382/1/6
f 373/1/6 374/1/6 382/1/6
f 381/6/6 372/6/6 382/6/6
f 374/1/6 375/1/6 382/1/6
f 375/2/6 376/2/6 383/2/6
f 382/1/6 375/1/6 383/1/6
f 376/3/6 377/3/6 384/3/6
f 383/2/6 376/2/6 384/2/6
f 377/4/6 378/4/6 385/4/6
f 384/3/6 377/3/6 385/3/6
f 378/6/6 379/6/6 386/6/6
f 385/4/6 378/4/6 386/4/6
f 386/6/6 379/6/6 387/6/6
f 380/6/6 381/6/6 390/6/6
f 381/1/6 382/1/6 391/1/6
f 383/1/6 384/1/6 391/1/6
f 390/6/6 381/6/6 391/6/6
f 382/1/6 383/1/6 391/1/6
f 384/2/6 385/2/6 392/2/6
f 391/1/6 384/1/6 392/1/6
f 385/3/6 386/3/6 393/3/6
f 392/2/6 385/2/6 393/2/6
f 386/4/6 387/4/6 394/4/6
f 393/3/6 386/3/6 394/3/6
f 387/6/6 388/6/6 395/6/6
f 394/4/6 387/4/6 395/4/6
f 395/6/6 388/6/6 396/6/6
f 389/6/6 390/6/6 399/6/6
f 390/1/6 391/1/6 400/1/6
f 392/1/6 393/1/6 400/1/6
f 399/6/6 390/6/6 400/6/6
f 391/1/6 392/1/6 400/1/6
f 393/2/6 394/2/6 401/2/6
f 400/1/6 393/1/6 401/1/6
f 394/3/6 395/3/6 402/3/6
f 401/2/6 394/2/6 402/2/6
f 395/4/6 396/4/6 403/4/6
f 402/3/6 395/3/6 403/3/6
f 396/6/6 397/6/6 404/6/6
f 403/4/6 396/4/6 404/4/6
f 404/6/6 397/6/6 405/6/6
f 398/6/6 399/6/6 408/6/6
f 399/1/6 400/1/6 409/1/6
f 401/1/6 402/1/6 409/1/6
f 408/6/6 399/6/6 409/6/6
f 400/1/6 401/1/6 409/1/6
f 402/2/6 403/2/6 410/2/6
f 409/1/6 402/1/6 410/1/6
f 403/3/6 404/3/6 411/3/6
f 410/2/6 403/2/6 411/2/6
f 404/4/6 405/4/6 412/4/6
f 411/3/6 404/3/6 412/3/6
f 405/6/6 406/6/6 413/6/6
f 412/4/6 405/4/6 413/4/6
f 413/6/6 406/6/6 414/6/6
f 407/6/6 408/6/6 417/6/6
f 408/1/6 409/1/6 418/1/6
f 410/1/6 411/1/6 418/1/6
f 417/6/6 408/6/6 418/6/6
f 409/1/6 410/1/6 418/1/6
f 411/2/6 412/2/6 419/2/6
f 418/1/6 411/1/6 419/1/6
f 412/3/6 413/3/6 420/3/6
f 419/2/6 412/2/6 420/2/6
f 413/4/6 414/4/6 421/4/6
f 420/3/6 413/3/6 421/3/6
f 414/6/6 415/6/6 422/6/6
f 421/4/6 414/4/6 422/4/6
f 422/6/6 415/6/6 423/6/6
f 420/1/6 421/1/6 425/1/6
f 417/1/6 418/1/6 425/1/6
f 419/1/6 420/1/6 425/1/6
f 418/1/6 419/1/6 425/1/6
f 425/1/6 421/1/6 426/1/6
f 417/1/6 425/1/6 427/1/6
f 425/5/6 426/5/6 427/5/6
f 426/1/6 421/1/6 428/1/6
f 427/5/6 426/5/6 428/5/6
f 428/1/6 421/1/6 429/1/6
f 429/1/6 421/1/6 430/1/6
f 430/1/6 421/1/6 431/1/6
f 416/6/6 417/6/6 432/6/6
f 417/1/6 427/1/6 433/1/6
f 432/6/6 417/6/6 433/6/6
f 427/1/6 428/1/6 433/1/6
f 433/1/6 428/1/6 434/1/6
f 428/5/6 429/5/6 435/5/6
f 434/1/6 428/1/6 435/1/6
f 429/1/6 430/1/6 436/1/6
f 435/5/6 429/5/6 436/5/6
f 436/1/6 430/1/6 437/1/6
f 437/1/6 430/1/6 438/1/6
f 430/6/6 431/6/6 439/6/6
f 438/1/6 430/1/6 439/1/6
f 431/1/6 421/1/6 440/1/6
f 439/6/6 431/6/6 440/6/6
f 440/1/6 421/1/6 441/1/6
f 422/4/6 423/4/6 442/4/6
f 421/3/6 422/3/6 442/3/6
f 423/6/6 424/6/6 443/6/6
f 442/4/6 423/4/6 443/4/6
f 443/6/6 424/6/6 444/6/6
f 433/6/6 434/6/6 445/6/6
f 434/1/6 435/1/6 446/1/6
f 445/6/6 434/6/6 446/6/6
f 435/1/6 436/1/6 446/1/6
f 446/1/6 436/1/6 447/1/6
f 436/5/6 437/5/6 448/5/6
f 447/1/6 436/1/6 448/1/6
f 437/1/6 438/1/6 449/1/6
f 448/5/6 437/5/6 449/5/6
f 449/1/6 438/1/6 450/1/6
f 438/6/6 439/6/6 451/6/6
f 450/1/6 438/1/6 451/1/6
f 451/6/6 439/6/6 452/6/6
f 440/6/6 441/6/6 453/6/6
f 441/1/6 421/1/6 454/1/6
f 453/6/6 441/6/6 454/6/6
f 454/1/6 421/1/6 455/1/6
f 455/1/6 421/1/6 456/1/6
f 421/3/6 442/3/6 457/3/6
f 456/1/6 421/1/6 457/1/6
f 442/6/6 443/6/6 458/6/6
f 457/3/6 442/3/6 458/3/6
f 458/6/6 443/6/6 459/6/6
f 446/6/6 447/6/6 460/6/6
f 449/1/6 450/1/6 461/1/6
f 460/6/6 447/6/6 461/6/6
f 447/1/6 448/1/6 461/1/6
f 448/1/6 449/1/6 461/1/6
f 450/6/6 451/6/6 462/6/6
f 461/1/6 450/1/6 462/1/6
f 462/6/6 451/6/6 463/6/6
f 454/6/6 455/6/6 464/6/6
f 455/1/6 456/1/6 465/1/6
f 464/6/6 455/6/6 465/6/6
f 456/3/6 457/3/6 466/3/6
f 465/1/6 456/1/6 466/1/6
f 457/6/6 458/6/6 467/6/6
f 466/3/6 457/3/6 467/3/6
f 467/6/6 458/6/6 468/6/6
f 461/6/6 462/6/6 469/6/6
f 469/6/6 462/6/6 470/6/6
f 466/6/6 467/6/6 471/6/6
f 465/6/6 466/6/6 471/6/6
f 471/6/6 467/6/6 472/6/6
