# MagicaVoxel @ Ephtracy

# group
g Trampoline

# material
mtllib Trampoline.mtl
usemtl palette

# normals
vn -1 0 0
vn 1 0 0
vn 0 0 1
vn 0 0 -1
vn 0 -1 0
vn 0 1 0

# texcoords
vt 0.919922 0.5
vt 0.935547 0.5
vt 0.982422 0.5
vt 0.986328 0.5
vt 0.994141 0.5

# verts
v -10 8 5
v -10 8 -5
v -10 10 5
v -10 10 -5
v -9 8 7
v -9 8 5
v -9 8 -5
v -9 8 -7
v -9 10 7
v -9 10 5
v -9 10 -5
v -9 10 -7
v -8 0 4
v -8 0 -4
v -8 1 6
v -8 1 4
v -8 1 -4
v -8 1 -6
v -8 2 5
v -8 2 4
v -8 2 -4
v -8 2 -5
v -8 8 8
v -8 8 7
v -8 8 6
v -8 8 5
v -8 8 -5
v -8 8 -6
v -8 8 -7
v -8 8 -8
v -8 10 8
v -8 10 7
v -8 10 -7
v -8 10 -8
v -7 1 8
v -7 1 7
v -7 1 -7
v -7 1 -8
v -7 8 9
v -7 8 8
v -7 8 7
v -7 8 -7
v -7 8 -8
v -7 8 -9
v -7 10 9
v -7 10 8
v -7 10 -8
v -7 10 -9
v -5 0 8
v -5 0 7
v -5 0 -7
v -5 0 -8
v -5 1 8
v -5 1 7
v -5 1 -7
v -5 1 -8
v -5 8 10
v -5 8 9
v -5 8 -9
v -5 8 -10
v -5 10 10
v -5 10 9
v -5 10 -9
v -5 10 -10
v 5 1 8
v 5 1 7
v 5 1 -7
v 5 1 -8
v 5 2 8
v 5 2 7
v 5 2 -7
v 5 2 -8
v 6 2 8
v 6 2 7
v 6 2 -7
v 6 2 -8
v 6 8 8
v 6 8 7
v 6 8 -7
v 6 8 -8
v 7 0 4
v 7 0 -4
v 7 1 6
v 7 1 4
v 7 1 -4
v 7 1 -6
v 7 2 5
v 7 2 4
v 7 2 -4
v 7 2 -5
v 7 8 6
v 7 8 5
v 7 8 -5
v 7 8 -6
v -7 0 4
v -7 0 -4
v -7 1 6
v -7 1 4
v -7 1 -4
v -7 1 -6
v -7 2 5
v -7 2 4
v -7 2 -4
v -7 2 -5
v -7 8 6
v -7 8 5
v -7 8 -5
v -7 8 -6
v -6 2 8
v -6 2 7
v -6 2 -7
v -6 2 -8
v -6 8 8
v -6 8 7
v -6 8 -7
v -6 8 -8
v -5 1 8
v -5 1 7
v -5 1 -7
v -5 1 -8
v -5 2 8
v -5 2 7
v -5 2 -7
v -5 2 -8
v 5 0 8
v 5 0 7
v 5 0 -7
v 5 0 -8
v 5 1 8
v 5 1 7
v 5 1 -7
v 5 1 -8
v 5 8 10
v 5 8 9
v 5 8 -9
v 5 8 -10
v 5 10 10
v 5 10 9
v 5 10 -9
v 5 10 -10
v 7 1 8
v 7 1 7
v 7 1 -7
v 7 1 -8
v 7 8 9
v 7 8 8
v 7 8 7
v 7 8 -7
v 7 8 -8
v 7 8 -9
v 7 10 9
v 7 10 8
v 7 10 -8
v 7 10 -9
v 8 0 4
v 8 0 -4
v 8 1 6
v 8 1 4
v 8 1 -4
v 8 1 -6
v 8 2 5
v 8 2 4
v 8 2 -4
v 8 2 -5
v 8 8 8
v 8 8 7
v 8 8 6
v 8 8 5
v 8 8 -5
v 8 8 -6
v 8 8 -7
v 8 8 -8
v 8 10 8
v 8 10 7
v 8 10 -7
v 8 10 -8
v 9 8 7
v 9 8 5
v 9 8 -5
v 9 8 -7
v 9 10 7
v 9 10 5
v 9 10 -5
v 9 10 -7
v 10 8 5
v 10 8 -5
v 10 10 5
v 10 10 -5
v -5 8 10
v -5 10 10
v 5 8 10
v 5 10 10
v -7 8 9
v -7 10 9
v -5 8 9
v -5 10 9
v 5 8 9
v 5 10 9
v 7 8 9
v 7 10 9
v -8 8 8
v -8 10 8
v -7 1 8
v -7 8 8
v -7 10 8
v -6 2 8
v -6 8 8
v -5 0 8
v -5 1 8
v -5 2 8
v 5 0 8
v 5 1 8
v 5 2 8
v 6 2 8
v 6 8 8
v 7 1 8
v 7 8 8
v 7 10 8
v 8 8 8
v 8 10 8
v -9 8 7
v -9 10 7
v -8 8 7
v -8 10 7
v 8 8 7
v 8 10 7
v 9 8 7
v 9 10 7
v -8 1 6
v -8 8 6
v -7 1 6
v -7 8 6
v 7 1 6
v 7 8 6
v 8 1 6
v 8 8 6
v -10 8 5
v -10 10 5
v -9 8 5
v -9 10 5
v 9 8 5
v 9 10 5
v 10 8 5
v 10 10 5
v -8 0 4
v -8 1 4
v -7 0 4
v -7 1 4
v 7 0 4
v 7 1 4
v 8 0 4
v 8 1 4
v -8 1 -4
v -8 2 -4
v -7 1 -4
v -7 2 -4
v 7 1 -4
v 7 2 -4
v 8 1 -4
v 8 2 -4
v -8 2 -5
v -8 8 -5
v -7 2 -5
v -7 8 -5
v 7 2 -5
v 7 8 -5
v 8 2 -5
v 8 8 -5
v -7 1 -7
v -7 8 -7
v -6 2 -7
v -6 8 -7
v -5 0 -7
v -5 1 -7
v -5 2 -7
v 5 0 -7
v 5 1 -7
v 5 2 -7
v 6 2 -7
v 6 8 -7
v 7 1 -7
v 7 8 -7
v -7 1 7
v -7 8 7
v -6 2 7
v -6 8 7
v -5 0 7
v -5 1 7
v -5 2 7
v 5 0 7
v 5 1 7
v 5 2 7
v 6 2 7
v 6 8 7
v 7 1 7
v 7 8 7
v -8 2 5
v -8 8 5
v -7 2 5
v -7 8 5
v 7 2 5
v 7 8 5
v 8 2 5
v 8 8 5
v -8 1 4
v -8 2 4
v -7 1 4
v -7 2 4
v 7 1 4
v 7 2 4
v 8 1 4
v 8 2 4
v -8 0 -4
v -8 1 -4
v -7 0 -4
v -7 1 -4
v 7 0 -4
v 7 1 -4
v 8 0 -4
v 8 1 -4
v -10 8 -5
v -10 10 -5
v -9 8 -5
v -9 10 -5
v 9 8 -5
v 9 10 -5
v 10 8 -5
v 10 10 -5
v -8 1 -6
v -8 8 -6
v -7 1 -6
v -7 8 -6
v 7 1 -6
v 7 8 -6
v 8 1 -6
v 8 8 -6
v -9 8 -7
v -9 10 -7
v -8 8 -7
v -8 10 -7
v 8 8 -7
v 8 10 -7
v 9 8 -7
v 9 10 -7
v -8 8 -8
v -8 10 -8
v -7 1 -8
v -7 8 -8
v -7 10 -8
v -6 2 -8
v -6 8 -8
v -5 0 -8
v -5 1 -8
v -5 2 -8
v 5 0 -8
v 5 1 -8
v 5 2 -8
v 6 2 -8
v 6 8 -8
v 7 1 -8
v 7 8 -8
v 7 10 -8
v 8 8 -8
v 8 10 -8
v -7 8 -9
v -7 10 -9
v -5 8 -9
v -5 10 -9
v 5 8 -9
v 5 10 -9
v 7 8 -9
v 7 10 -9
v -5 8 -10
v -5 10 -10
v 5 8 -10
v 5 10 -10
v -5 0 8
v 5 0 8
v -5 0 7
v 5 0 7
v -8 0 4
v -7 0 4
v 7 0 4
v 8 0 4
v -8 0 -4
v -7 0 -4
v 7 0 -4
v 8 0 -4
v -5 0 -7
v 5 0 -7
v -5 0 -8
v 5 0 -8
v -7 1 8
v -5 1 8
v 5 1 8
v 7 1 8
v -7 1 7
v -5 1 7
v 5 1 7
v 7 1 7
v -8 1 6
v -7 1 6
v 7 1 6
v 8 1 6
v -8 1 4
v -7 1 4
v 7 1 4
v 8 1 4
v -8 1 -4
v -7 1 -4
v 7 1 -4
v 8 1 -4
v -8 1 -6
v -7 1 -6
v 7 1 -6
v 8 1 -6
v -7 1 -7
v -5 1 -7
v 5 1 -7
v 7 1 -7
v -7 1 -8
v -5 1 -8
v 5 1 -8
v 7 1 -8
v -5 8 10
v 5 8 10
v -7 8 9
v -5 8 9
v 5 8 9
v 7 8 9
v -8 8 8
v -7 8 8
v -6 8 8
v -5 8 8
v 5 8 8
v 6 8 8
v 7 8 8
v 8 8 8
v -9 8 7
v -8 8 7
v -7 8 7
v -6 8 7
v -5 8 7
v 5 8 7
v 6 8 7
v 7 8 7
v 8 8 7
v 9 8 7
v -8 8 6
v -7 8 6
v 7 8 6
v 8 8 6
v -10 8 5
v -9 8 5
v -8 8 5
v -7 8 5
v 7 8 5
v 8 8 5
v 9 8 5
v 10 8 5
v -10 8 -5
v -9 8 -5
v -8 8 -5
v -7 8 -5
v 7 8 -5
v 8 8 -5
v 9 8 -5
v 10 8 -5
v -8 8 -6
v -7 8 -6
v 7 8 -6
v 8 8 -6
v -9 8 -7
v -8 8 -7
v -7 8 -7
v -6 8 -7
v -5 8 -7
v 5 8 -7
v 6 8 -7
v 7 8 -7
v 8 8 -7
v 9 8 -7
v -8 8 -8
v -7 8 -8
v -6 8 -8
v -5 8 -8
v 5 8 -8
v 6 8 -8
v 7 8 -8
v 8 8 -8
v -7 8 -9
v -5 8 -9
v 5 8 -9
v 7 8 -9
v -5 8 -10
v 5 8 -10
v -5 1 8
v 5 1 8
v -5 1 7
v 5 1 7
v -8 1 4
v -7 1 4
v 7 1 4
v 8 1 4
v -8 1 -4
v -7 1 -4
v 7 1 -4
v 8 1 -4
v -5 1 -7
v 5 1 -7
v -5 1 -8
v 5 1 -8
v -6 2 8
v -5 2 8
v 5 2 8
v 6 2 8
v -6 2 7
v -5 2 7
v 5 2 7
v 6 2 7
v -8 2 5
v -7 2 5
v 7 2 5
v 8 2 5
v -8 2 4
v -7 2 4
v 7 2 4
v 8 2 4
v -8 2 -4
v -7 2 -4
v 7 2 -4
v 8 2 -4
v -8 2 -5
v -7 2 -5
v 7 2 -5
v 8 2 -5
v -6 2 -7
v -5 2 -7
v 5 2 -7
v 6 2 -7
v -6 2 -8
v -5 2 -8
v 5 2 -8
v 6 2 -8
v -5 10 10
v 5 10 10
v -7 10 9
v -5 10 9
v 5 10 9
v 7 10 9
v -8 10 8
v -7 10 8
v -5 10 8
v 5 10 8
v 7 10 8
v 8 10 8
v -9 10 7
v -8 10 7
v -7 10 7
v -6 10 7
v -5 10 7
v 5 10 7
v 6 10 7
v 7 10 7
v 8 10 7
v 9 10 7
v -7 10 6
v -6 10 6
v -5 10 6
v -4 10 6
v 4 10 6
v 5 10 6
v 6 10 6
v 7 10 6
v -10 10 5
v -9 10 5
v -8 10 5
v -7 10 5
v -6 10 5
v -5 10 5
v -4 10 5
v 4 10 5
v 5 10 5
v 6 10 5
v 7 10 5
v 8 10 5
v 9 10 5
v 10 10 5
v -6 10 4
v -5 10 4
v -3 10 4
v 3 10 4
v 5 10 4
v 6 10 4
v -4 10 3
v -3 10 3
v -2 10 3
v 2 10 3
v 3 10 3
v 4 10 3
v -3 10 2
v -2 10 2
v -1 10 2
v 1 10 2
v 2 10 2
v 3 10 2
v -2 10 1
v -1 10 1
v 1 10 1
v 2 10 1
v -2 10 -1
v -1 10 -1
v 1 10 -1
v 2 10 -1
v -3 10 -2
v -2 10 -2
v -1 10 -2
v 1 10 -2
v 2 10 -2
v 3 10 -2
v -4 10 -3
v -3 10 -3
v -2 10 -3
v 2 10 -3
v 3 10 -3
v 4 10 -3
v -6 10 -4
v -5 10 -4
v -3 10 -4
v 3 10 -4
v 5 10 -4
v 6 10 -4
v -10 10 -5
v -9 10 -5
v -8 10 -5
v -7 10 -5
v -6 10 -5
v -5 10 -5
v -4 10 -5
v 4 10 -5
v 5 10 -5
v 6 10 -5
v 7 10 -5
v 8 10 -5
v 9 10 -5
v 10 10 -5
v -7 10 -6
v -6 10 -6
v -5 10 -6
v -4 10 -6
v 4 10 -6
v 5 10 -6
v 6 10 -6
v 7 10 -6
v -9 10 -7
v -8 10 -7
v -7 10 -7
v -6 10 -7
v -5 10 -7
v 5 10 -7
v 6 10 -7
v 7 10 -7
v 8 10 -7
v 9 10 -7
v -8 10 -8
v -7 10 -8
v -5 10 -8
v 5 10 -8
v 7 10 -8
v 8 10 -8
v -7 10 -9
v -5 10 -9
v 5 10 -9
v 7 10 -9
v -5 10 -10
v 5 10 -10

# faces
f 3/5/1 2/5/1 1/5/1
f 4/5/1 2/5/1 3/5/1
f 9/5/1 6/5/1 5/5/1
f 10/5/1 6/5/1 9/5/1
f 11/5/1 8/5/1 7/5/1
f 12/5/1 8/5/1 11/5/1
f 16/3/1 14/3/1 13/3/1
f 17/3/1 14/3/1 16/3/1
f 19/3/1 16/3/1 15/3/1
f 20/3/1 16/3/1 19/3/1
f 21/3/1 18/3/1 17/3/1
f 22/3/1 18/3/1 21/3/1
f 25/3/1 19/3/1 15/3/1
f 26/3/1 19/3/1 25/3/1
f 27/3/1 18/3/1 22/3/1
f 28/3/1 18/3/1 27/3/1
f 31/5/1 24/5/1 23/5/1
f 32/5/1 24/5/1 31/5/1
f 33/5/1 30/5/1 29/5/1
f 34/5/1 30/5/1 33/5/1
f 40/3/1 36/3/1 35/3/1
f 41/3/1 36/3/1 40/3/1
f 42/3/1 38/3/1 37/3/1
f 43/3/1 38/3/1 42/3/1
f 45/5/1 40/5/1 39/5/1
f 46/5/1 40/5/1 45/5/1
f 47/5/1 44/5/1 43/5/1
f 48/5/1 44/5/1 47/5/1
f 53/3/1 50/3/1 49/3/1
f 54/3/1 50/3/1 53/3/1
f 55/3/1 52/3/1 51/3/1
f 56/3/1 52/3/1 55/3/1
f 61/5/1 58/5/1 57/5/1
f 62/5/1 58/5/1 61/5/1
f 63/5/1 60/5/1 59/5/1
f 64/5/1 60/5/1 63/5/1
f 69/3/1 66/3/1 65/3/1
f 70/3/1 66/3/1 69/3/1
f 71/3/1 68/3/1 67/3/1
f 72/3/1 68/3/1 71/3/1
f 77/3/1 74/3/1 73/3/1
f 78/3/1 74/3/1 77/3/1
f 79/3/1 76/3/1 75/3/1
f 80/3/1 76/3/1 79/3/1
f 84/3/1 82/3/1 81/3/1
f 85/3/1 82/3/1 84/3/1
f 87/3/1 84/3/1 83/3/1
f 88/3/1 84/3/1 87/3/1
f 89/3/1 86/3/1 85/3/1
f 90/3/1 86/3/1 89/3/1
f 91/3/1 87/3/1 83/3/1
f 92/3/1 87/3/1 91/3/1
f 93/3/1 86/3/1 90/3/1
f 94/3/1 86/3/1 93/3/1
f 95/3/2 96/3/2 98/3/2
f 98/3/2 96/3/2 99/3/2
f 97/3/2 98/3/2 101/3/2
f 101/3/2 98/3/2 102/3/2
f 99/3/2 100/3/2 103/3/2
f 103/3/2 100/3/2 104/3/2
f 97/3/2 101/3/2 105/3/2
f 105/3/2 101/3/2 106/3/2
f 104/3/2 100/3/2 107/3/2
f 107/3/2 100/3/2 108/3/2
f 109/3/2 110/3/2 113/3/2
f 113/3/2 110/3/2 114/3/2
f 111/3/2 112/3/2 115/3/2
f 115/3/2 112/3/2 116/3/2
f 117/3/2 118/3/2 121/3/2
f 121/3/2 118/3/2 122/3/2
f 119/3/2 120/3/2 123/3/2
f 123/3/2 120/3/2 124/3/2
f 125/3/2 126/3/2 129/3/2
f 129/3/2 126/3/2 130/3/2
f 127/3/2 128/3/2 131/3/2
f 131/3/2 128/3/2 132/3/2
f 133/5/2 134/5/2 137/5/2
f 137/5/2 134/5/2 138/5/2
f 135/5/2 136/5/2 139/5/2
f 139/5/2 136/5/2 140/5/2
f 141/3/2 142/3/2 146/3/2
f 146/3/2 142/3/2 147/3/2
f 143/3/2 144/3/2 148/3/2
f 148/3/2 144/3/2 149/3/2
f 145/5/2 146/5/2 151/5/2
f 151/5/2 146/5/2 152/5/2
f 149/5/2 150/5/2 153/5/2
f 153/5/2 150/5/2 154/5/2
f 155/3/2 156/3/2 158/3/2
f 158/3/2 156/3/2 159/3/2
f 157/3/2 158/3/2 161/3/2
f 161/3/2 158/3/2 162/3/2
f 159/3/2 160/3/2 163/3/2
f 163/3/2 160/3/2 164/3/2
f 157/3/2 161/3/2 167/3/2
f 167/3/2 161/3/2 168/3/2
f 164/3/2 160/3/2 169/3/2
f 169/3/2 160/3/2 170/3/2
f 165/5/2 166/5/2 173/5/2
f 173/5/2 166/5/2 174/5/2
f 171/5/2 172/5/2 175/5/2
f 175/5/2 172/5/2 176/5/2
f 177/5/2 178/5/2 181/5/2
f 181/5/2 178/5/2 182/5/2
f 179/5/2 180/5/2 183/5/2
f 183/5/2 180/5/2 184/5/2
f 185/5/2 186/5/2 187/5/2
f 187/5/2 186/5/2 188/5/2
f 191/5/3 190/5/3 189/5/3
f 192/5/3 190/5/3 191/5/3
f 195/5/3 194/5/3 193/5/3
f 196/5/3 194/5/3 195/5/3
f 199/5/3 198/5/3 197/5/3
f 200/5/3 198/5/3 199/5/3
f 204/5/3 202/5/3 201/5/3
f 205/5/3 202/5/3 204/5/3
f 206/3/3 204/3/3 203/3/3
f 207/3/3 204/3/3 206/3/3
f 209/3/3 206/3/3 203/3/3
f 210/3/3 206/3/3 209/3/3
f 211/3/3 209/3/3 208/3/3
f 212/3/3 209/3/3 211/3/3
f 214/3/3 213/3/3 212/3/3
f 216/3/3 214/3/3 212/3/3
f 216/3/3 215/3/3 214/3/3
f 217/3/3 215/3/3 216/3/3
f 219/5/3 218/5/3 217/5/3
f 220/5/3 218/5/3 219/5/3
f 223/5/3 222/5/3 221/5/3
f 224/5/3 222/5/3 223/5/3
f 227/5/3 226/5/3 225/5/3
f 228/5/3 226/5/3 227/5/3
f 231/3/3 230/3/3 229/3/3
f 232/3/3 230/3/3 231/3/3
f 235/3/3 234/3/3 233/3/3
f 236/3/3 234/3/3 235/3/3
f 239/5/3 238/5/3 237/5/3
f 240/5/3 238/5/3 239/5/3
f 243/5/3 242/5/3 241/5/3
f 244/5/3 242/5/3 243/5/3
f 247/3/3 246/3/3 245/3/3
f 248/3/3 246/3/3 247/3/3
f 251/3/3 250/3/3 249/3/3
f 252/3/3 250/3/3 251/3/3
f 255/3/3 254/3/3 253/3/3
f 256/3/3 254/3/3 255/3/3
f 259/3/3 258/3/3 257/3/3
f 260/3/3 258/3/3 259/3/3
f 263/3/3 262/3/3 261/3/3
f 264/3/3 262/3/3 263/3/3
f 267/3/3 266/3/3 265/3/3
f 268/3/3 266/3/3 267/3/3
f 271/3/3 270/3/3 269/3/3
f 272/3/3 270/3/3 271/3/3
f 274/3/3 271/3/3 269/3/3
f 275/3/3 271/3/3 274/3/3
f 276/3/3 274/3/3 273/3/3
f 277/3/3 274/3/3 276/3/3
f 279/3/3 278/3/3 277/3/3
f 281/3/3 279/3/3 277/3/3
f 281/3/3 280/3/3 279/3/3
f 282/3/3 280/3/3 281/3/3
f 283/3/4 284/3/4 285/3/4
f 285/3/4 284/3/4 286/3/4
f 283/3/4 285/3/4 288/3/4
f 288/3/4 285/3/4 289/3/4
f 287/3/4 288/3/4 290/3/4
f 290/3/4 288/3/4 291/3/4
f 291/3/4 292/3/4 293/3/4
f 291/3/4 293/3/4 295/3/4
f 293/3/4 294/3/4 295/3/4
f 295/3/4 294/3/4 296/3/4
f 297/3/4 298/3/4 299/3/4
f 299/3/4 298/3/4 300/3/4
f 301/3/4 302/3/4 303/3/4
f 303/3/4 302/3/4 304/3/4
f 305/3/4 306/3/4 307/3/4
f 307/3/4 306/3/4 308/3/4
f 309/3/4 310/3/4 311/3/4
f 311/3/4 310/3/4 312/3/4
f 313/3/4 314/3/4 315/3/4
f 315/3/4 314/3/4 316/3/4
f 317/3/4 318/3/4 319/3/4
f 319/3/4 318/3/4 320/3/4
f 321/5/4 322/5/4 323/5/4
f 323/5/4 322/5/4 324/5/4
f 325/5/4 326/5/4 327/5/4
f 327/5/4 326/5/4 328/5/4
f 329/3/4 330/3/4 331/3/4
f 331/3/4 330/3/4 332/3/4
f 333/3/4 334/3/4 335/3/4
f 335/3/4 334/3/4 336/3/4
f 337/5/4 338/5/4 339/5/4
f 339/5/4 338/5/4 340/5/4
f 341/5/4 342/5/4 343/5/4
f 343/5/4 342/5/4 344/5/4
f 345/5/4 346/5/4 348/5/4
f 348/5/4 346/5/4 349/5/4
f 347/3/4 348/3/4 350/3/4
f 350/3/4 348/3/4 351/3/4
f 347/3/4 350/3/4 353/3/4
f 353/3/4 350/3/4 354/3/4
f 352/3/4 353/3/4 355/3/4
f 355/3/4 353/3/4 356/3/4
f 356/3/4 357/3/4 358/3/4
f 356/3/4 358/3/4 360/3/4
f 358/3/4 359/3/4 360/3/4
f 360/3/4 359/3/4 361/3/4
f 361/5/4 362/5/4 363/5/4
f 363/5/4 362/5/4 364/5/4
f 365/5/4 366/5/4 367/5/4
f 367/5/4 366/5/4 368/5/4
f 369/5/4 370/5/4 371/5/4
f 371/5/4 370/5/4 372/5/4
f 373/5/4 374/5/4 375/5/4
f 375/5/4 374/5/4 376/5/4
f 379/3/5 378/3/5 377/3/5
f 380/3/5 378/3/5 379/3/5
f 385/3/5 382/3/5 381/3/5
f 386/3/5 382/3/5 385/3/5
f 387/3/5 384/3/5 383/3/5
f 388/3/5 384/3/5 387/3/5
f 391/3/5 390/3/5 389/3/5
f 392/3/5 390/3/5 391/3/5
f 397/3/5 394/3/5 393/3/5
f 398/3/5 394/3/5 397/3/5
f 399/3/5 396/3/5 395/3/5
f 400/3/5 396/3/5 399/3/5
f 405/3/5 402/3/5 401/3/5
f 406/3/5 402/3/5 405/3/5
f 407/3/5 404/3/5 403/3/5
f 408/3/5 404/3/5 407/3/5
f 413/3/5 410/3/5 409/3/5
f 414/3/5 410/3/5 413/3/5
f 415/3/5 412/3/5 411/3/5
f 416/3/5 412/3/5 415/3/5
f 421/3/5 418/3/5 417/3/5
f 422/3/5 418/3/5 421/3/5
f 423/3/5 420/3/5 419/3/5
f 424/3/5 420/3/5 423/3/5
f 428/5/5 426/5/5 425/5/5
f 429/5/5 426/5/5 428/5/5
f 432/5/5 428/5/5 427/5/5
f 433/5/5 428/5/5 432/5/5
f 434/4/5 429/4/5 428/4/5
f 434/5/5 428/5/5 433/5/5
f 435/5/5 430/5/5 429/5/5
f 435/4/5 429/4/5 434/4/5
f 436/5/5 430/5/5 435/5/5
f 437/5/5 430/5/5 436/5/5
f 440/5/5 432/5/5 431/5/5
f 441/5/5 432/5/5 440/5/5
f 442/4/5 434/4/5 433/4/5
f 443/2/5 435/2/5 434/2/5
f 443/4/5 434/4/5 442/4/5
f 444/4/5 436/4/5 435/4/5
f 444/2/5 435/2/5 443/2/5
f 445/4/5 436/4/5 444/4/5
f 446/5/5 438/5/5 437/5/5
f 447/5/5 438/5/5 446/5/5
f 449/4/5 441/4/5 440/4/5
f 449/5/5 440/5/5 439/5/5
f 450/2/5 445/2/5 444/2/5
f 450/4/5 441/4/5 449/4/5
f 450/2/5 443/2/5 442/2/5
f 450/2/5 446/2/5 445/2/5
f 450/2/5 442/2/5 441/2/5
f 450/2/5 444/2/5 443/2/5
f 451/4/5 447/4/5 446/4/5
f 451/2/5 446/2/5 450/2/5
f 452/5/5 448/5/5 447/5/5
f 452/4/5 447/4/5 451/4/5
f 454/5/5 449/5/5 439/5/5
f 455/5/5 449/5/5 454/5/5
f 456/2/5 451/2/5 450/2/5
f 457/2/5 451/2/5 456/2/5
f 458/5/5 448/5/5 452/5/5
f 459/5/5 448/5/5 458/5/5
f 461/5/5 454/5/5 453/5/5
f 462/4/5 455/4/5 454/4/5
f 462/5/5 454/5/5 461/5/5
f 463/2/5 457/2/5 456/2/5
f 463/4/5 455/4/5 462/4/5
f 463/2/5 456/2/5 455/2/5
f 463/2/5 458/2/5 457/2/5
f 464/2/5 458/2/5 463/2/5
f 465/2/5 458/2/5 464/2/5
f 466/4/5 459/4/5 458/4/5
f 466/2/5 458/2/5 465/2/5
f 467/5/5 460/5/5 459/5/5
f 467/4/5 459/4/5 466/4/5
f 468/5/5 460/5/5 467/5/5
f 469/5/5 463/5/5 462/5/5
f 470/2/5 465/2/5 464/2/5
f 471/2/5 465/2/5 470/2/5
f 472/5/5 467/5/5 466/5/5
f 473/5/5 469/5/5 462/5/5
f 474/4/5 470/4/5 469/4/5
f 474/5/5 469/5/5 473/5/5
f 475/2/5 471/2/5 470/2/5
f 475/4/5 470/4/5 474/4/5
f 476/2/5 471/2/5 475/2/5
f 477/2/5 471/2/5 476/2/5
f 478/2/5 471/2/5 477/2/5
f 479/2/5 471/2/5 478/2/5
f 480/4/5 472/4/5 471/4/5
f 480/2/5 471/2/5 479/2/5
f 481/5/5 467/5/5 472/5/5
f 481/4/5 472/4/5 480/4/5
f 482/5/5 467/5/5 481/5/5
f 483/5/5 475/5/5 474/5/5
f 484/5/5 475/5/5 483/5/5
f 485/4/5 477/4/5 476/4/5
f 486/2/5 478/2/5 477/2/5
f 486/4/5 477/4/5 485/4/5
f 487/4/5 479/4/5 478/4/5
f 487/2/5 478/2/5 486/2/5
f 488/4/5 479/4/5 487/4/5
f 489/5/5 481/5/5 480/5/5
f 490/5/5 481/5/5 489/5/5
f 491/5/5 486/5/5 485/5/5
f 491/5/5 485/5/5 484/5/5
f 492/4/5 487/4/5 486/4/5
f 492/5/5 486/5/5 491/5/5
f 493/5/5 488/5/5 487/5/5
f 493/4/5 487/4/5 492/4/5
f 493/5/5 489/5/5 488/5/5
f 494/5/5 489/5/5 493/5/5
f 495/5/5 493/5/5 492/5/5
f 496/5/5 493/5/5 495/5/5
f 497/3/6 498/3/6 499/3/6
f 499/3/6 498/3/6 500/3/6
f 501/3/6 502/3/6 505/3/6
f 505/3/6 502/3/6 506/3/6
f 503/3/6 504/3/6 507/3/6
f 507/3/6 504/3/6 508/3/6
f 509/3/6 510/3/6 511/3/6
f 511/3/6 510/3/6 512/3/6
f 513/3/6 514/3/6 517/3/6
f 517/3/6 514/3/6 518/3/6
f 515/3/6 516/3/6 519/3/6
f 519/3/6 516/3/6 520/3/6
f 521/3/6 522/3/6 525/3/6
f 525/3/6 522/3/6 526/3/6
f 523/3/6 524/3/6 527/3/6
f 527/3/6 524/3/6 528/3/6
f 529/3/6 530/3/6 533/3/6
f 533/3/6 530/3/6 534/3/6
f 531/3/6 532/3/6 535/3/6
f 535/3/6 532/3/6 536/3/6
f 537/3/6 538/3/6 541/3/6
f 541/3/6 538/3/6 542/3/6
f 539/3/6 540/3/6 543/3/6
f 543/3/6 540/3/6 544/3/6
f 545/5/6 546/5/6 548/5/6
f 548/5/6 546/5/6 549/5/6
f 547/5/6 548/5/6 552/5/6
f 548/4/6 549/4/6 553/4/6
f 552/5/6 548/5/6 553/5/6
f 549/5/6 550/5/6 554/5/6
f 553/4/6 549/4/6 554/4/6
f 554/5/6 550/5/6 555/5/6
f 551/5/6 552/5/6 558/5/6
f 552/4/6 553/4/6 559/4/6
f 558/5/6 552/5/6 559/5/6
f 559/4/6 553/4/6 560/4/6
f 553/2/6 554/2/6 561/2/6
f 560/4/6 553/4/6 561/4/6
f 554/4/6 555/4/6 562/4/6
f 561/2/6 554/2/6 562/2/6
f 562/4/6 555/4/6 563/4/6
f 555/5/6 556/5/6 564/5/6
f 563/4/6 555/4/6 564/4/6
f 564/5/6 556/5/6 565/5/6
f 559/1/6 560/1/6 567/1/6
f 558/4/6 559/4/6 567/4/6
f 562/2/6 563/2/6 568/2/6
f 567/1/6 560/1/6 568/1/6
f 560/2/6 561/2/6 568/2/6
f 561/2/6 562/2/6 568/2/6
f 568/2/6 563/2/6 569/2/6
f 569/2/6 563/2/6 570/2/6
f 570/2/6 563/2/6 571/2/6
f 571/2/6 563/2/6 572/2/6
f 563/1/6 564/1/6 573/1/6
f 572/2/6 563/2/6 573/2/6
f 564/4/6 565/4/6 574/4/6
f 573/1/6 564/1/6 574/1/6
f 557/5/6 558/5/6 576/5/6
f 558/4/6 567/4/6 577/4/6
f 576/5/6 558/5/6 577/5/6
f 567/2/6 568/2/6 578/2/6
f 577/4/6 567/4/6 578/4/6
f 568/1/6 569/1/6 579/1/6
f 578/2/6 568/2/6 579/2/6
f 569/2/6 570/2/6 580/2/6
f 579/1/6 569/1/6 580/1/6
f 570/1/6 571/1/6 581/1/6
f 580/2/6 570/2/6 581/2/6
f 571/2/6 572/2/6 582/2/6
f 581/1/6 571/1/6 582/1/6
f 572/1/6 573/1/6 583/1/6
f 582/2/6 572/2/6 583/2/6
f 573/2/6 574/2/6 584/2/6
f 583/1/6 573/1/6 584/1/6
f 574/4/6 565/4/6 585/4/6
f 584/2/6 574/2/6 585/2/6
f 565/5/6 566/5/6 586/5/6
f 585/4/6 565/4/6 586/4/6
f 586/5/6 566/5/6 587/5/6
f 577/2/6 578/2/6 589/2/6
f 578/2/6 579/2/6 589/2/6
f 579/2/6 580/2/6 589/2/6
f 580/1/6 581/1/6 590/1/6
f 589/2/6 580/2/6 590/2/6
f 581/1/6 582/1/6 590/1/6
f 582/1/6 583/1/6 590/1/6
f 590/1/6 583/1/6 591/1/6
f 591/1/6 583/1/6 592/1/6
f 583/2/6 584/2/6 593/2/6
f 592/1/6 583/1/6 593/1/6
f 584/2/6 585/2/6 593/2/6
f 585/2/6 586/2/6 593/2/6
f 593/2/6 586/2/6 594/2/6
f 590/1/6 591/1/6 595/1/6
f 589/1/6 590/1/6 595/1/6
f 591/2/6 592/2/6 596/2/6
f 595/1/6 591/1/6 596/1/6
f 596/2/6 592/2/6 597/2/6
f 597/2/6 592/2/6 598/2/6
f 593/1/6 594/1/6 599/1/6
f 598/2/6 592/2/6 599/2/6
f 592/1/6 593/1/6 599/1/6
f 599/1/6 594/1/6 600/1/6
f 596/1/6 597/1/6 601/1/6
f 595/2/6 596/2/6 601/2/6
f 597/2/6 598/2/6 602/2/6
f 601/1/6 597/1/6 602/1/6
f 602/2/6 598/2/6 603/2/6
f 603/2/6 598/2/6 604/2/6
f 598/1/6 599/1/6 605/1/6
f 604/2/6 598/2/6 605/2/6
f 599/2/6 600/2/6 606/2/6
f 605/1/6 599/1/6 606/1/6
f 601/2/6 602/2/6 607/2/6
f 602/1/6 603/1/6 607/1/6
f 603/2/6 604/2/6 608/2/6
f 607/1/6 603/1/6 608/1/6
f 604/1/6 605/1/6 609/1/6
f 608/2/6 604/2/6 609/2/6
f 605/2/6 606/2/6 610/2/6
f 609/1/6 605/1/6 610/1/6
f 607/2/6 608/2/6 611/2/6
f 601/2/6 607/2/6 611/2/6
f 608/1/6 609/1/6 612/1/6
f 611/2/6 608/2/6 612/2/6
f 609/2/6 610/2/6 613/2/6
f 612/1/6 609/1/6 613/1/6
f 610/2/6 606/2/6 614/2/6
f 613/2/6 610/2/6 614/2/6
f 595/2/6 601/2/6 615/2/6
f 601/2/6 611/2/6 615/2/6
f 611/1/6 612/1/6 616/1/6
f 615/2/6 611/2/6 616/2/6
f 612/2/6 613/2/6 617/2/6
f 616/1/6 612/1/6 617/1/6
f 613/1/6 614/1/6 618/1/6
f 617/2/6 613/2/6 618/2/6
f 614/2/6 606/2/6 619/2/6
f 618/1/6 614/1/6 619/1/6
f 606/2/6 600/2/6 620/2/6
f 619/2/6 606/2/6 620/2/6
f 589/1/6 595/1/6 621/1/6
f 595/2/6 615/2/6 621/2/6
f 615/1/6 616/1/6 622/1/6
f 621/2/6 615/2/6 622/2/6
f 617/2/6 618/2/6 623/2/6
f 622/1/6 616/1/6 623/1/6
f 618/2/6 619/2/6 623/2/6
f 616/2/6 617/2/6 623/2/6
f 619/1/6 620/1/6 624/1/6
f 623/2/6 619/2/6 624/2/6
f 620/2/6 600/2/6 625/2/6
f 624/1/6 620/1/6 625/1/6
f 600/1/6 594/1/6 626/1/6
f 625/2/6 600/2/6 626/2/6
f 577/2/6 589/2/6 627/2/6
f 621/1/6 622/1/6 627/1/6
f 589/1/6 621/1/6 627/1/6
f 627/1/6 622/1/6 628/1/6
f 623/2/6 624/2/6 629/2/6
f 628/1/6 622/1/6 629/1/6
f 624/2/6 625/2/6 629/2/6
f 622/2/6 623/2/6 629/2/6
f 625/1/6 626/1/6 630/1/6
f 629/2/6 625/2/6 630/2/6
f 626/1/6 594/1/6 631/1/6
f 630/1/6 626/1/6 631/1/6
f 594/2/6 586/2/6 632/2/6
f 631/1/6 594/1/6 632/1/6
f 575/5/6 576/5/6 633/5/6
f 576/4/6 577/4/6 634/4/6
f 633/5/6 576/5/6 634/5/6
f 627/2/6 628/2/6 635/2/6
f 634/4/6 577/4/6 635/4/6
f 577/2/6 627/2/6 635/2/6
f 635/2/6 628/2/6 636/2/6
f 636/2/6 628/2/6 637/2/6
f 630/1/6 631/1/6 638/1/6
f 637/2/6 628/2/6 638/2/6
f 629/1/6 630/1/6 638/1/6
f 628/1/6 629/1/6 638/1/6
f 638/1/6 631/1/6 639/1/6
f 639/1/6 631/1/6 640/1/6
f 631/2/6 632/2/6 641/2/6
f 640/1/6 631/1/6 641/1/6
f 632/2/6 586/2/6 642/2/6
f 641/2/6 632/2/6 642/2/6
f 642/2/6 586/2/6 643/2/6
f 586/4/6 587/4/6 644/4/6
f 643/2/6 586/2/6 644/2/6
f 587/5/6 588/5/6 645/5/6
f 644/4/6 587/4/6 645/4/6
f 645/5/6 588/5/6 646/5/6
f 636/2/6 637/2/6 647/2/6
f 635/4/6 636/4/6 647/4/6
f 637/1/6 638/1/6 648/1/6
f 647/2/6 637/2/6 648/2/6
f 638/2/6 639/2/6 649/2/6
f 648/1/6 638/1/6 649/1/6
f 639/1/6 640/1/6 650/1/6
f 649/2/6 639/2/6 650/2/6
f 640/2/6 641/2/6 651/2/6
f 650/1/6 640/1/6 651/1/6
f 641/1/6 642/1/6 652/1/6
f 651/2/6 641/2/6 652/2/6
f 642/2/6 643/2/6 653/2/6
f 652/1/6 642/1/6 653/1/6
f 643/4/6 644/4/6 654/4/6
f 653/2/6 643/2/6 654/2/6
f 634/5/6 635/5/6 655/5/6
f 635/4/6 647/4/6 656/4/6
f 655/5/6 635/5/6 656/5/6
f 647/1/6 648/1/6 657/1/6
f 656/4/6 647/4/6 657/4/6
f 649/2/6 650/2/6 658/2/6
f 657/1/6 648/1/6 658/1/6
f 650/2/6 651/2/6 658/2/6
f 652/2/6 653/2/6 658/2/6
f 651/2/6 652/2/6 658/2/6
f 648/2/6 649/2/6 658/2/6
f 658/2/6 653/2/6 659/2/6
f 659/2/6 653/2/6 660/2/6
f 653/1/6 654/1/6 661/1/6
f 660/2/6 653/2/6 661/2/6
f 654/4/6 644/4/6 662/4/6
f 661/1/6 654/1/6 662/1/6
f 644/5/6 645/5/6 663/5/6
f 662/4/6 644/4/6 663/4/6
f 663/5/6 645/5/6 664/5/6
f 656/5/6 657/5/6 665/5/6
f 657/4/6 658/4/6 666/4/6
f 665/5/6 657/5/6 666/5/6
f 658/4/6 659/4/6 666/4/6
f 659/2/6 660/2/6 667/2/6
f 666/4/6 659/4/6 667/4/6
f 661/4/6 662/4/6 668/4/6
f 667/2/6 660/2/6 668/2/6
f 660/4/6 661/4/6 668/4/6
f 662/5/6 663/5/6 669/5/6
f 668/4/6 662/4/6 669/4/6
f 669/5/6 663/5/6 670/5/6
f 666/5/6 667/5/6 671/5/6
f 667/4/6 668/4/6 672/4/6
f 671/5/6 667/5/6 672/5/6
f 668/5/6 669/5/6 673/5/6
f 672/4/6 668/4/6 673/4/6
f 673/5/6 669/5/6 674/5/6
f 672/5/6 673/5/6 675/5/6
f 675/5/6 673/5/6 676/5/6
