# MagicaVoxel @ Ephtracy

# group
g koodi2

# material
mtllib koodi2.mtl
usemtl palette

# normals
vn -1 0 0
vn 1 0 0
vn 0 0 1
vn 0 0 -1
vn 0 -1 0
vn 0 1 0

# texcoords
vt 0.880859 0.5
vt 0.958984 0.5

# verts
v -16 4 -19
v -16 4 -20
v -16 9 -19
v -16 9 -20
v -16 11 -19
v -16 11 -20
v -16 16 -19
v -16 16 -20
v -16 18 -19
v -16 18 -20
v -16 23 -19
v -16 23 -20
v -16 25 -19
v -16 25 -20
v -16 30 -19
v -16 30 -20
v -7 4 -19
v -7 4 -20
v -7 9 -19
v -7 9 -20
v -7 11 -19
v -7 11 -20
v -7 16 -19
v -7 16 -20
v -7 18 -19
v -7 18 -20
v -7 23 -19
v -7 23 -20
v -7 25 -19
v -7 25 -20
v -7 30 -19
v -7 30 -20
v 2 4 -19
v 2 4 -20
v 2 9 -19
v 2 9 -20
v 2 11 -19
v 2 11 -20
v 2 16 -19
v 2 16 -20
v 2 18 -19
v 2 18 -20
v 2 23 -19
v 2 23 -20
v 2 25 -19
v 2 25 -20
v 2 30 -19
v 2 30 -20
v 11 4 -19
v 11 4 -20
v 11 9 -19
v 11 9 -20
v 11 11 -19
v 11 11 -20
v 11 16 -19
v 11 16 -20
v 11 18 -19
v 11 18 -20
v 11 23 -19
v 11 23 -20
v 11 25 -19
v 11 25 -20
v 11 30 -19
v 11 30 -20
v -9 4 -19
v -9 4 -20
v -9 9 -19
v -9 9 -20
v -9 11 -19
v -9 11 -20
v -9 16 -19
v -9 16 -20
v -9 18 -19
v -9 18 -20
v -9 23 -19
v -9 23 -20
v -9 25 -19
v -9 25 -20
v -9 30 -19
v -9 30 -20
v 0 4 -19
v 0 4 -20
v 0 9 -19
v 0 9 -20
v 0 11 -19
v 0 11 -20
v 0 16 -19
v 0 16 -20
v 0 18 -19
v 0 18 -20
v 0 23 -19
v 0 23 -20
v 0 25 -19
v 0 25 -20
v 0 30 -19
v 0 30 -20
v 9 4 -19
v 9 4 -20
v 9 9 -19
v 9 9 -20
v 9 11 -19
v 9 11 -20
v 9 16 -19
v 9 16 -20
v 9 18 -19
v 9 18 -20
v 9 23 -19
v 9 23 -20
v 9 25 -19
v 9 25 -20
v 9 30 -19
v 9 30 -20
v 18 4 -19
v 18 4 -20
v 18 9 -19
v 18 9 -20
v 18 11 -19
v 18 11 -20
v 18 16 -19
v 18 16 -20
v 18 18 -19
v 18 18 -20
v 18 23 -19
v 18 23 -20
v 18 25 -19
v 18 25 -20
v 18 30 -19
v 18 30 -20
v -16 4 -19
v -16 9 -19
v -16 11 -19
v -16 16 -19
v -16 18 -19
v -16 23 -19
v -16 25 -19
v -16 30 -19
v -9 4 -19
v -9 9 -19
v -9 11 -19
v -9 16 -19
v -9 18 -19
v -9 23 -19
v -9 25 -19
v -9 30 -19
v -7 4 -19
v -7 9 -19
v -7 11 -19
v -7 16 -19
v -7 18 -19
v -7 23 -19
v -7 25 -19
v -7 30 -19
v 0 4 -19
v 0 9 -19
v 0 11 -19
v 0 16 -19
v 0 18 -19
v 0 23 -19
v 0 25 -19
v 0 30 -19
v 2 4 -19
v 2 9 -19
v 2 11 -19
v 2 16 -19
v 2 18 -19
v 2 23 -19
v 2 25 -19
v 2 30 -19
v 9 4 -19
v 9 9 -19
v 9 11 -19
v 9 16 -19
v 9 18 -19
v 9 23 -19
v 9 25 -19
v 9 30 -19
v 11 4 -19
v 11 9 -19
v 11 11 -19
v 11 16 -19
v 11 18 -19
v 11 23 -19
v 11 25 -19
v 11 30 -19
v 18 4 -19
v 18 9 -19
v 18 11 -19
v 18 16 -19
v 18 18 -19
v 18 23 -19
v 18 25 -19
v 18 30 -19
v -16 4 -20
v -16 9 -20
v -16 11 -20
v -16 16 -20
v -16 18 -20
v -16 23 -20
v -16 25 -20
v -16 30 -20
v -9 4 -20
v -9 9 -20
v -9 11 -20
v -9 16 -20
v -9 18 -20
v -9 23 -20
v -9 25 -20
v -9 30 -20
v -7 4 -20
v -7 9 -20
v -7 11 -20
v -7 16 -20
v -7 18 -20
v -7 23 -20
v -7 25 -20
v -7 30 -20
v 0 4 -20
v 0 9 -20
v 0 11 -20
v 0 16 -20
v 0 18 -20
v 0 23 -20
v 0 25 -20
v 0 30 -20
v 2 4 -20
v 2 9 -20
v 2 11 -20
v 2 16 -20
v 2 18 -20
v 2 23 -20
v 2 25 -20
v 2 30 -20
v 9 4 -20
v 9 9 -20
v 9 11 -20
v 9 16 -20
v 9 18 -20
v 9 23 -20
v 9 25 -20
v 9 30 -20
v 11 4 -20
v 11 9 -20
v 11 11 -20
v 11 16 -20
v 11 18 -20
v 11 23 -20
v 11 25 -20
v 11 30 -20
v 18 4 -20
v 18 9 -20
v 18 11 -20
v 18 16 -20
v 18 18 -20
v 18 23 -20
v 18 25 -20
v 18 30 -20
v -16 4 -19
v -9 4 -19
v -7 4 -19
v 0 4 -19
v 2 4 -19
v 9 4 -19
v 11 4 -19
v 18 4 -19
v -16 4 -20
v -9 4 -20
v -7 4 -20
v 0 4 -20
v 2 4 -20
v 9 4 -20
v 11 4 -20
v 18 4 -20
v -16 11 -19
v -9 11 -19
v -7 11 -19
v 0 11 -19
v 2 11 -19
v 9 11 -19
v 11 11 -19
v 18 11 -19
v -16 11 -20
v -9 11 -20
v -7 11 -20
v 0 11 -20
v 2 11 -20
v 9 11 -20
v 11 11 -20
v 18 11 -20
v -16 18 -19
v -9 18 -19
v -7 18 -19
v 0 18 -19
v 2 18 -19
v 9 18 -19
v 11 18 -19
v 18 18 -19
v -16 18 -20
v -9 18 -20
v -7 18 -20
v 0 18 -20
v 2 18 -20
v 9 18 -20
v 11 18 -20
v 18 18 -20
v -16 25 -19
v -9 25 -19
v -7 25 -19
v 0 25 -19
v 2 25 -19
v 9 25 -19
v 11 25 -19
v 18 25 -19
v -16 25 -20
v -9 25 -20
v -7 25 -20
v 0 25 -20
v 2 25 -20
v 9 25 -20
v 11 25 -20
v 18 25 -20
v -16 9 -19
v -9 9 -19
v -7 9 -19
v 0 9 -19
v 2 9 -19
v 9 9 -19
v 11 9 -19
v 18 9 -19
v -16 9 -20
v -9 9 -20
v -7 9 -20
v 0 9 -20
v 2 9 -20
v 9 9 -20
v 11 9 -20
v 18 9 -20
v -16 16 -19
v -9 16 -19
v -7 16 -19
v 0 16 -19
v 2 16 -19
v 9 16 -19
v 11 16 -19
v 18 16 -19
v -16 16 -20
v -9 16 -20
v -7 16 -20
v 0 16 -20
v 2 16 -20
v 9 16 -20
v 11 16 -20
v 18 16 -20
v -16 23 -19
v -9 23 -19
v -7 23 -19
v 0 23 -19
v 2 23 -19
v 9 23 -19
v 11 23 -19
v 18 23 -19
v -16 23 -20
v -9 23 -20
v -7 23 -20
v 0 23 -20
v 2 23 -20
v 9 23 -20
v 11 23 -20
v 18 23 -20
v -16 30 -19
v -9 30 -19
v -7 30 -19
v 0 30 -19
v 2 30 -19
v 9 30 -19
v 11 30 -19
v 18 30 -19
v -16 30 -20
v -9 30 -20
v -7 30 -20
v 0 30 -20
v 2 30 -20
v 9 30 -20
v 11 30 -20
v 18 30 -20

# faces
f 3/1/1 2/1/1 1/1/1
f 4/1/1 2/1/1 3/1/1
f 7/2/1 6/2/1 5/2/1
f 8/2/1 6/2/1 7/2/1
f 11/2/1 10/2/1 9/2/1
f 12/2/1 10/2/1 11/2/1
f 15/2/1 14/2/1 13/2/1
f 16/2/1 14/2/1 15/2/1
f 19/1/1 18/1/1 17/1/1
f 20/1/1 18/1/1 19/1/1
f 23/1/1 22/1/1 21/1/1
f 24/1/1 22/1/1 23/1/1
f 27/2/1 26/2/1 25/2/1
f 28/2/1 26/2/1 27/2/1
f 31/1/1 30/1/1 29/1/1
f 32/1/1 30/1/1 31/1/1
f 35/2/1 34/2/1 33/2/1
f 36/2/1 34/2/1 35/2/1
f 39/2/1 38/2/1 37/2/1
f 40/2/1 38/2/1 39/2/1
f 43/1/1 42/1/1 41/1/1
f 44/1/1 42/1/1 43/1/1
f 47/1/1 46/1/1 45/1/1
f 48/1/1 46/1/1 47/1/1
f 51/2/1 50/2/1 49/2/1
f 52/2/1 50/2/1 51/2/1
f 55/2/1 54/2/1 53/2/1
f 56/2/1 54/2/1 55/2/1
f 59/1/1 58/1/1 57/1/1
f 60/1/1 58/1/1 59/1/1
f 63/2/1 62/2/1 61/2/1
f 64/2/1 62/2/1 63/2/1
f 65/1/2 66/1/2 67/1/2
f 67/1/2 66/1/2 68/1/2
f 69/2/2 70/2/2 71/2/2
f 71/2/2 70/2/2 72/2/2
f 73/2/2 74/2/2 75/2/2
f 75/2/2 74/2/2 76/2/2
f 77/2/2 78/2/2 79/2/2
f 79/2/2 78/2/2 80/2/2
f 81/1/2 82/1/2 83/1/2
f 83/1/2 82/1/2 84/1/2
f 85/1/2 86/1/2 87/1/2
f 87/1/2 86/1/2 88/1/2
f 89/2/2 90/2/2 91/2/2
f 91/2/2 90/2/2 92/2/2
f 93/1/2 94/1/2 95/1/2
f 95/1/2 94/1/2 96/1/2
f 97/2/2 98/2/2 99/2/2
f 99/2/2 98/2/2 100/2/2
f 101/2/2 102/2/2 103/2/2
f 103/2/2 102/2/2 104/2/2
f 105/1/2 106/1/2 107/1/2
f 107/1/2 106/1/2 108/1/2
f 109/1/2 110/1/2 111/1/2
f 111/1/2 110/1/2 112/1/2
f 113/2/2 114/2/2 115/2/2
f 115/2/2 114/2/2 116/2/2
f 117/2/2 118/2/2 119/2/2
f 119/2/2 118/2/2 120/2/2
f 121/1/2 122/1/2 123/1/2
f 123/1/2 122/1/2 124/1/2
f 125/2/2 126/2/2 127/2/2
f 127/2/2 126/2/2 128/2/2
f 137/1/3 130/1/3 129/1/3
f 138/1/3 130/1/3 137/1/3
f 139/2/3 132/2/3 131/2/3
f 140/2/3 132/2/3 139/2/3
f 141/2/3 134/2/3 133/2/3
f 142/2/3 134/2/3 141/2/3
f 143/2/3 136/2/3 135/2/3
f 144/2/3 136/2/3 143/2/3
f 153/1/3 146/1/3 145/1/3
f 154/1/3 146/1/3 153/1/3
f 155/1/3 148/1/3 147/1/3
f 156/1/3 148/1/3 155/1/3
f 157/2/3 150/2/3 149/2/3
f 158/2/3 150/2/3 157/2/3
f 159/1/3 152/1/3 151/1/3
f 160/1/3 152/1/3 159/1/3
f 169/2/3 162/2/3 161/2/3
f 170/2/3 162/2/3 169/2/3
f 171/2/3 164/2/3 163/2/3
f 172/2/3 164/2/3 171/2/3
f 173/1/3 166/1/3 165/1/3
f 174/1/3 166/1/3 173/1/3
f 175/1/3 168/1/3 167/1/3
f 176/1/3 168/1/3 175/1/3
f 185/2/3 178/2/3 177/2/3
f 186/2/3 178/2/3 185/2/3
f 187/2/3 180/2/3 179/2/3
f 188/2/3 180/2/3 187/2/3
f 189/1/3 182/1/3 181/1/3
f 190/1/3 182/1/3 189/1/3
f 191/2/3 184/2/3 183/2/3
f 192/2/3 184/2/3 191/2/3
f 193/1/4 194/1/4 201/1/4
f 201/1/4 194/1/4 202/1/4
f 195/2/4 196/2/4 203/2/4
f 203/2/4 196/2/4 204/2/4
f 197/2/4 198/2/4 205/2/4
f 205/2/4 198/2/4 206/2/4
f 199/2/4 200/2/4 207/2/4
f 207/2/4 200/2/4 208/2/4
f 209/1/4 210/1/4 217/1/4
f 217/1/4 210/1/4 218/1/4
f 211/1/4 212/1/4 219/1/4
f 219/1/4 212/1/4 220/1/4
f 213/2/4 214/2/4 221/2/4
f 221/2/4 214/2/4 222/2/4
f 215/1/4 216/1/4 223/1/4
f 223/1/4 216/1/4 224/1/4
f 225/2/4 226/2/4 233/2/4
f 233/2/4 226/2/4 234/2/4
f 227/2/4 228/2/4 235/2/4
f 235/2/4 228/2/4 236/2/4
f 229/1/4 230/1/4 237/1/4
f 237/1/4 230/1/4 238/1/4
f 231/1/4 232/1/4 239/1/4
f 239/1/4 232/1/4 240/1/4
f 241/2/4 242/2/4 249/2/4
f 249/2/4 242/2/4 250/2/4
f 243/2/4 244/2/4 251/2/4
f 251/2/4 244/2/4 252/2/4
f 245/1/4 246/1/4 253/1/4
f 253/1/4 246/1/4 254/1/4
f 247/2/4 248/2/4 255/2/4
f 255/2/4 248/2/4 256/2/4
f 265/1/5 258/1/5 257/1/5
f 266/1/5 258/1/5 265/1/5
f 267/1/5 260/1/5 259/1/5
f 268/1/5 260/1/5 267/1/5
f 269/2/5 262/2/5 261/2/5
f 270/2/5 262/2/5 269/2/5
f 271/2/5 264/2/5 263/2/5
f 272/2/5 264/2/5 271/2/5
f 281/2/5 274/2/5 273/2/5
f 282/2/5 274/2/5 281/2/5
f 283/1/5 276/1/5 275/1/5
f 284/1/5 276/1/5 283/1/5
f 285/2/5 278/2/5 277/2/5
f 286/2/5 278/2/5 285/2/5
f 287/2/5 280/2/5 279/2/5
f 288/2/5 280/2/5 287/2/5
f 297/2/5 290/2/5 289/2/5
f 298/2/5 290/2/5 297/2/5
f 299/2/5 292/2/5 291/2/5
f 300/2/5 292/2/5 299/2/5
f 301/1/5 294/1/5 293/1/5
f 302/1/5 294/1/5 301/1/5
f 303/1/5 296/1/5 295/1/5
f 304/1/5 296/1/5 303/1/5
f 313/2/5 306/2/5 305/2/5
f 314/2/5 306/2/5 313/2/5
f 315/1/5 308/1/5 307/1/5
f 316/1/5 308/1/5 315/1/5
f 317/1/5 310/1/5 309/1/5
f 318/1/5 310/1/5 317/1/5
f 319/2/5 312/2/5 311/2/5
f 320/2/5 312/2/5 319/2/5
f 321/1/6 322/1/6 329/1/6
f 329/1/6 322/1/6 330/1/6
f 323/1/6 324/1/6 331/1/6
f 331/1/6 324/1/6 332/1/6
f 325/2/6 326/2/6 333/2/6
f 333/2/6 326/2/6 334/2/6
f 327/2/6 328/2/6 335/2/6
f 335/2/6 328/2/6 336/2/6
f 337/2/6 338/2/6 345/2/6
f 345/2/6 338/2/6 346/2/6
f 339/1/6 340/1/6 347/1/6
f 347/1/6 340/1/6 348/1/6
f 341/2/6 342/2/6 349/2/6
f 349/2/6 342/2/6 350/2/6
f 343/2/6 344/2/6 351/2/6
f 351/2/6 344/2/6 352/2/6
f 353/2/6 354/2/6 361/2/6
f 361/2/6 354/2/6 362/2/6
f 355/2/6 356/2/6 363/2/6
f 363/2/6 356/2/6 364/2/6
f 357/1/6 358/1/6 365/1/6
f 365/1/6 358/1/6 366/1/6
f 359/1/6 360/1/6 367/1/6
f 367/1/6 360/1/6 368/1/6
f 369/2/6 370/2/6 377/2/6
f 377/2/6 370/2/6 378/2/6
f 371/1/6 372/1/6 379/1/6
f 379/1/6 372/1/6 380/1/6
f 373/1/6 374/1/6 381/1/6
f 381/1/6 374/1/6 382/1/6
f 375/2/6 376/2/6 383/2/6
f 383/2/6 376/2/6 384/2/6
